<svg width="36" height="38" viewBox="0 0 36 38" fill="none" xmlns="http://www.w3.org/2000/svg">
<rect width="36" height="38" fill="#292929"/>
<g id="index collection" clip-path="url(#clip0_1_4)">
<rect width="1440" height="1751" transform="translate(-150 -5)" fill="#110000"/>
<g id="Rectangle 7" filter="url(#filter0_f_1_4)">
<rect x="-31" y="204" width="723" height="700" rx="350" fill="#6210A3" fill-opacity="0.4"/>
</g>
<g id="Group 3">
<path id="Vector" d="M11.9875 1.75219C13.5375 2.91041 15.7375 4.722 18.7 6.96421C21.2312 8.85866 23.6647 10.9313 25.9875 13.1711C27 14.4184 27.8 17.6258 29.6625 20.3284C30.8596 22.1067 32.1992 23.7428 33.6625 25.2137C32.2488 24.8903 30.8945 24.2719 29.6625 23.3873C28.0819 22.2995 26.6733 20.8925 25.5 19.2295C24.9886 18.2663 24.4249 17.3437 23.8125 16.4676C22.3375 14.8045 17.175 12.3099 14.025 11.1219C10.875 9.93402 10.15 10.6616 7.02498 9.96371C5.55651 9.77699 4.12901 9.27379 2.81248 8.47881L0.499977 0L11.9875 5.03383V1.75219Z" fill="#E24329"/>
<path id="Vector_2" d="M0.500021 10.6171L4.88752 19.7047H8.38752L18 17.4031V15.9182L13.5375 12.7702L10.2625 12.1465L0.500021 10.6171ZM21.9 19.7938L22.2875 24.3821L24.325 25.0949L26.4625 24.2485L21.9 19.7938Z" fill="#FC6D26"/>
<path id="Vector_3" d="M33.6625 26.1343C33.8713 26.5919 33.9909 27.0994 34.0125 27.6192C34.0125 28.2875 35.5 28.6587 35.5 30.7524C35.4396 31.6435 35.1945 32.503 34.7867 33.2544C34.3788 34.0057 33.8209 34.6255 33.1625 35.0586L30.075 37.4196C30.3973 36.6198 30.5435 35.7359 30.5 34.8507C30.5066 34.441 30.4178 34.0371 30.2436 33.6834C30.0694 33.3297 29.8164 33.04 29.5125 32.8461C28.675 32.0591 21.05 30.4851 18.775 30.8712C17.1494 31.2127 15.6666 32.1901 14.5625 33.648L4.25 24.6494L6.9125 21.7687H8.6625L11.0875 20.3878H18.1L21.05 27.7083C24.9833 27.4807 27.3458 27.3124 28.1375 27.2035C28.9375 27.0847 30.7625 26.7728 33.6625 26.1343Z" fill="#FCA326"/>
</g>
</g>
<defs>
<filter id="filter0_f_1_4" x="-438.4" y="-203.4" width="1537.8" height="1514.8" filterUnits="userSpaceOnUse" color-interpolation-filters="sRGB">
<feFlood flood-opacity="0" result="BackgroundImageFix"/>
<feBlend mode="normal" in="SourceGraphic" in2="BackgroundImageFix" result="shape"/>
<feGaussianBlur stdDeviation="203.7" result="effect1_foregroundBlur_1_4"/>
</filter>
<clipPath id="clip0_1_4">
<rect width="1440" height="1751" fill="white" transform="translate(-150 -5)"/>
</clipPath>
</defs>
</svg>
